HIERARCHY
ROOT Hips
{
	OFFSET -0.179506 -22.333345 2.821913
	CHANNELS 6 Xposition Yposition Zposition Zrotation Yrotation Xrotation 
	JOINT LeftUpLeg
	{
		OFFSET 6.951974 -9.140623 -0.681533
		CHANNELS 3 Zrotation Yrotation Xrotation
		JOINT LeftLeg
		{
			OFFSET 3.427654 -37.519855 -0.449580
			CHANNELS 3 Zrotation Yrotation Xrotation
			JOINT LeftFoot
			{
				OFFSET -1.359570 -39.796059 -4.369333
				CHANNELS 3 Zrotation Yrotation Xrotation
				JOINT LeftToe
				{
					OFFSET 2.635814 -5.579078 11.928840
					CHANNELS 3 Zrotation Yrotation Xrotation
					End Site
					{
						OFFSET 0.000000 0.000000 0.000000
					}
				}
			}
		}
	}
	JOINT RightUpLeg
	{
		OFFSET -6.767048 -9.052170 -0.431982
		CHANNELS 3 Zrotation Yrotation Xrotation
		JOINT RightLeg
		{
			OFFSET -3.829005 -38.256897 -0.885003
			CHANNELS 3 Zrotation Yrotation Xrotation
			JOINT RightFoot
			{
				OFFSET 1.577377 -39.841461 -4.231180
				CHANNELS 3 Zrotation Yrotation Xrotation
				JOINT RightToe
				{
					OFFSET -2.537174 -4.814398 12.334795
					CHANNELS 3 Zrotation Yrotation Xrotation
					End Site
					{
						OFFSET 0.000000 0.000000 0.000000
					}
				}
			}
		}
	}
	JOINT Spine
	{
		OFFSET -0.253288 10.896323 -2.669631
		CHANNELS 3 Zrotation Yrotation Xrotation
		JOINT Spine1
		{
			OFFSET 0.548704 13.518043 0.109247
			CHANNELS 3 Zrotation Yrotation Xrotation
			JOINT Spine2
			{
				OFFSET 0.145701 5.292222 2.542457
				CHANNELS 3 Zrotation Yrotation Xrotation
				JOINT Neck
				{
					OFFSET -0.277840 21.387037 -4.285703
					CHANNELS 3 Zrotation Yrotation Xrotation
					JOINT Head
					{
						OFFSET 0.515184 6.496960 5.134897
						CHANNELS 3 Zrotation Yrotation Xrotation
						End Site
						{
							OFFSET 0.000000 0.000000 0.000000
						}
					}
				}
				JOINT LeftShoulder
				{
					OFFSET 7.884473 12.174932 -3.408961
					CHANNELS 3 Zrotation Yrotation Xrotation
					JOINT LeftArm
					{
						OFFSET 9.097692 3.046888 -0.886815
						CHANNELS 3 Zrotation Yrotation Xrotation
						JOINT LeftForeArm
						{
							OFFSET 25.961220 -1.277207 -2.745643
							CHANNELS 3 Zrotation Yrotation Xrotation
							JOINT LeftHand
							{
								OFFSET 24.923361 0.898606 -0.117091
								CHANNELS 3 Zrotation Yrotation Xrotation
								End Site
								{
									OFFSET 0.000000 0.000000 0.000000
								}
							}
						}
					}
				}
				JOINT RightShoulder
				{
					OFFSET -8.175920 11.883285 -3.861528
					CHANNELS 3 Zrotation Yrotation Xrotation
					JOINT RightArm
					{
						OFFSET -9.601238 3.255117 -0.914307
						CHANNELS 3 Zrotation Yrotation Xrotation
						JOINT RightForeArm
						{
							OFFSET -25.374195 -1.332924 -2.140099
							CHANNELS 3 Zrotation Yrotation Xrotation
							JOINT RightHand
							{
								OFFSET -25.529810 0.777228 -0.555919
								CHANNELS 3 Zrotation Yrotation Xrotation
								End Site
								{
									OFFSET 0.000000 0.000000 0.000000
								}
							}
						}
					}
				}
			}
		}
	}
}
MOTION
Frames: 9
Frame Time: 0.033333
-12.234164 -382.603333 89.867477 -167.429125 -3.573493 96.984679 -8.419782 -2.117187 5.282722 -12.398414 -5.260786 50.350282 4.478032 28.029274 -37.115175 nan nan nan 2.991254 5.853138 -38.122808 9.841239 -5.341000 37.654088 -3.336244 -13.135770 -9.876654 nan nan nan -1.978741 -5.752379 11.519368 3.676767 -2.475337 7.296243 -0.002920 -2.149096 -4.565651 -6.965166 -3.514674 -0.449595 4.789596 5.826470 -8.703197 -25.193985 1.274447 3.422243 -56.946913 -5.013615 13.342545 -3.953718 26.810845 -0.876201 -18.084831 3.763853 21.361162 23.741261 0.568525 -0.717142 50.040893 1.720232 2.944128 0.538229 -14.674931 -16.602129 10.195972 4.361039 -2.748842 
-12.842681 -381.105804 90.023621 -169.742463 -3.250939 98.785111 -8.123227 -2.840356 0.509641 -11.351077 -1.912729 53.630518 4.362952 26.504722 -34.491871 nan nan nan 3.446360 7.155699 -36.483358 8.981816 -2.106676 27.697873 -3.114918 -10.974489 -4.354246 nan nan nan -1.207260 -4.457306 10.822554 3.675159 -2.136972 7.369014 -0.083740 -1.456318 -6.142116 -7.735714 -3.458358 0.634923 4.585958 5.545014 -9.684587 -26.850428 1.752787 3.358182 -57.238930 -2.558029 15.697598 -5.367407 29.914999 2.207310 -18.496797 1.951623 21.597907 24.567605 0.313384 -0.419710 49.180447 1.292125 3.673737 2.915129 -18.573280 -16.776543 9.372797 4.762995 -0.489925 
-14.219089 -380.597015 90.164055 -176.045138 -3.366935 101.931095 -9.968521 -4.296874 -6.131906 -10.641903 2.903993 56.900163 5.379808 25.805770 -33.230164 nan nan nan 3.152000 9.582700 -37.815088 8.694637 2.151152 26.143474 -2.583334 -8.752854 -3.549524 nan nan nan 0.271766 -2.778448 11.036774 1.918455 -0.286775 6.091100 -1.138643 0.429151 -7.599746 -7.808923 -3.227575 -0.763979 3.382032 5.855543 -8.706324 -27.376327 2.386040 1.033061 -58.124222 0.465669 17.058804 -2.186100 31.603006 4.342484 -19.728364 2.614177 23.142345 24.074062 1.989380 0.403692 46.749829 5.733838 4.523489 2.186749 -21.761521 -16.013610 8.765709 3.961209 5.146368 
-14.915108 -378.531067 89.937263 -177.329393 -3.766908 102.058548 -9.560959 -4.544367 -8.647198 -10.701630 4.757470 60.524105 5.517303 25.802235 -34.173158 nan nan nan 3.079423 9.836125 -36.432813 8.649980 3.460140 26.964617 -2.769694 -8.362542 -6.264149 nan nan nan 0.487059 -2.055562 10.967255 1.338260 -0.040008 6.199424 -1.502213 0.821288 -7.945588 -7.663685 -3.235233 -0.757200 3.034837 5.543641 -8.414391 -27.708277 2.681833 0.604962 -58.231838 1.145429 16.848822 -0.853013 32.445893 4.854596 -19.564837 2.940220 24.344567 24.294100 2.783415 0.696505 46.632092 7.255908 4.741317 1.597518 -22.223683 -15.897864 8.126724 4.219283 5.957299 
-15.441360 -376.296356 89.443275 -178.488881 -4.259276 101.916500 -8.335362 -5.334380 -11.253423 -6.715912 11.300723 65.020035 6.484310 27.226543 -47.907732 nan nan nan 2.051858 10.174636 -37.086623 7.300258 -0.502284 31.320598 -0.076584 -3.886529 -8.868331 nan nan nan -0.345084 -1.660812 9.354202 2.050553 0.363603 9.591199 -2.509675 1.226651 -9.604173 -5.098548 -2.571149 -1.792580 0.203550 4.874197 -6.304739 -26.666779 4.877329 -0.206386 -60.941031 0.848925 23.654747 29.550745 -70.556570 7.107440 -4.492712 -9.925504 19.461244 23.987243 2.368489 1.922258 46.134645 11.621836 10.805922 -28.184273 52.802614 -7.764555 -5.140677 12.791112 4.266841 
-15.568757 -373.731934 88.968140 -177.572827 -4.781325 101.269858 -6.793041 -5.359268 -13.245281 -6.814865 12.019855 69.428792 6.452318 27.648777 -49.568164 nan nan nan 1.591582 9.872458 -36.510168 8.010515 -0.531892 34.805928 -0.245434 -3.706408 -11.025306 nan nan nan -0.915450 -1.318535 9.221485 2.114583 0.044264 9.511714 -2.536774 0.950530 -9.324087 -4.992758 -3.044689 -1.567447 0.800475 4.620584 -5.597473 -27.472012 5.154622 0.060181 -58.819065 1.464466 23.624341 23.851867 -71.359281 9.998481 -3.799105 -11.152883 16.027056 24.685994 2.282797 1.759278 45.516247 10.187783 11.285871 -25.955190 58.081257 -7.954817 -6.310564 14.069002 -0.660287 
-16.294621 -373.735260 89.123695 -174.546975 -5.969987 104.218572 -5.695735 -8.560977 -23.240760 -7.661683 12.235055 75.433715 6.695985 24.464685 -49.075110 nan nan nan -0.326744 8.741093 -38.181271 7.322376 -0.448885 31.762967 -1.366310 -4.947548 -11.563982 nan nan nan -0.010488 -1.113571 10.743458 1.673550 -1.413608 4.997838 -2.462385 0.407241 -8.592170 -6.344952 -5.600745 -3.950033 2.617222 5.412342 -3.843767 -29.406119 4.316834 -0.416205 -57.139703 0.476184 27.012986 17.043283 -75.912340 6.245836 -0.243775 -16.748111 -2.783355 23.753374 0.334456 -0.579292 44.457107 4.760127 12.410472 -22.950682 65.911657 -14.593083 -9.667494 15.373167 -17.244341 
-16.826254 -371.342194 88.815979 -173.529848 -6.671127 102.910955 -5.115037 -9.222890 -25.032303 -8.354303 12.481868 79.473056 6.938390 24.757335 -50.851841 nan nan nan -0.794630 8.673860 -37.338939 7.744794 -0.014155 35.894178 -1.955483 -5.556060 -13.952094 nan nan nan -0.159242 -1.002938 11.410513 1.575991 -1.914762 5.226322 -2.535452 0.086622 -8.153166 -6.339840 -6.319297 -4.324639 2.780703 5.544068 -3.521280 -29.980820 4.560381 -0.160004 -57.147049 0.803906 26.326382 20.353566 -73.801840 -0.081884 -0.418261 -16.593059 -7.047654 23.885706 -0.098755 -1.034281 44.835095 3.721513 12.014946 -25.799332 65.461113 -20.430159 -9.886074 14.981839 -22.847257 
-15.529510 -366.468567 87.511414 -169.163279 -6.855631 98.430761 -1.945429 -7.646099 -22.592521 -8.672507 12.004886 84.233542 5.995983 25.606262 -54.489872 nan nan nan 0.784540 6.902200 -30.547884 8.156519 -4.518646 38.744636 -2.160411 -6.335294 -19.452764 nan nan nan -3.451476 -0.414531 10.040541 3.258845 -3.466986 8.446714 -1.333255 -1.970008 -6.453767 -4.821713 -3.680372 -2.430654 3.860027 2.711717 -5.336821 -28.079880 6.010894 2.483322 -54.863087 0.696370 24.206449 12.971107 -75.466992 5.298526 4.031870 -23.861904 -12.954740 25.368461 -1.284084 -1.046258 50.548670 -3.932671 12.969377 -39.019198 75.168881 -34.773584 -16.164282 19.110312 -38.204887 
